<svg xmlns="http://www.w3.org/2000/svg" version="1.1" xmlns:xlink="http://www.w3.org/1999/xlink" xmlns:svgjs="http://svgjs.dev/svgjs" width="2000" height="2352" viewBox="0 0 2000 2352"><g transform="matrix(1,0,0,1,3.8379259263289214,0.9522267206477864)"><svg viewBox="0 0 210 247" data-background-color="#ffffff" preserveAspectRatio="xMidYMid meet" height="2352" width="2000" xmlns="http://www.w3.org/2000/svg" xmlns:xlink="http://www.w3.org/1999/xlink"><g id="tight-bounds" transform="matrix(1,0,0,1,-0.07604361423113914,-0.09999999999999432)"><svg viewBox="0 0 210.15208722846225 247.2" height="247.2" width="210.15208722846225"><g><svg viewBox="0 0 488.86271999999997 575.0447972121445" height="247.2" width="210.15208722846225"><g transform="matrix(1,0,0,1,46.67135999999999,0)"><svg viewBox="0 0 395.52 157.99592493297584" height="157.99592493297584" width="395.52"><g id="textblocktransform"><svg viewBox="0 0 395.52 157.99592493297584" height="157.99592493297584" width="395.52" id="textblock"><g><svg viewBox="0 0 395.52 157.99592493297584" height="157.99592493297584" width="395.52"><g transform="matrix(1,0,0,1,0,0)"><svg width="395.52" viewBox="2.25 -18.1 18.65 7.450000000000001" height="157.99592493297584" data-palette-color="#f9bc60"><path d="M2.8-10.65L2.8-10.65Q2.5-11.3 2.38-11.93 2.25-12.55 2.25-13.1L2.25-13.1Q2.25-15.05 3.6-16.32 4.95-17.6 7.25-17.6L7.25-17.6Q9.45-17.6 11.63-17.43 13.8-17.25 15.65-17.25L15.65-17.25Q17.05-17.25 18.18-17.43 19.3-17.6 20-18.1L20-18.1Q20.9-16.45 20.9-15L20.9-15Q20.9-13.3 19.65-12.2 18.4-11.1 15.75-11.1L15.75-11.1Q13-11.1 10.9-11.18 8.8-11.25 7.15-11.25L7.15-11.25Q5.8-11.25 4.73-11.15 3.65-11.05 2.8-10.65Z" opacity="1" transform="matrix(1,0,0,1,0,0)" fill="#f9bc60" class="wordmark-text-0" data-fill-palette-color="primary" id="text-0"></path></svg></g></svg></g></svg></g></svg></g><g transform="matrix(1,0,0,1,0,195.29497090745303)"><svg viewBox="0 0 488.86271999999997 379.74982630469145" height="379.74982630469145" width="488.86271999999997"><g><svg xmlns:sketch="http://www.bohemiancoding.com/sketch/ns" xmlns="http://www.w3.org/2000/svg" xmlns:xlink="http://www.w3.org/1999/xlink" version="1.1" x="0" y="0" viewBox="2.096 7.366 39.913615711409605 31.005000000000003" enable-background="new 0 0 44 44" xml:space="preserve" height="379.74982630469145" width="488.86271999999997" class="icon-icon-0" data-fill-palette-color="accent" id="icon-0"><g fill="#f9bc60" data-fill-palette-color="accent"><g fill="#f9bc60" data-fill-palette-color="accent"><path d="M36.832 26.987H4.149A0.584 0.584 0 0 0 3.562 27.566 0.6 0.6 0 0 0 3.633 27.843L3.636 27.846A18.2 18.2 0 0 0 7.324 32.998 18.7 18.7 0 0 0 9.732 35.006C9.802 35.047 9.868 35.092 9.931 35.142L9.938 35.149A1.74 1.74 0 0 1 10.52 36.949V36.953A1 1 0 0 0 10.508 37.112V37.237C10.508 37.816 10.94 38.294 11.506 38.371H29.483A1.15 1.15 0 0 0 30.483 37.237V37.112C30.483 37.077 30.481 37.043 30.478 37.009A2 2 0 0 1 30.416 36.727 2 2 0 0 1 30.397 36.492 1.74 1.74 0 0 1 31.261 34.999 19 19 0 0 0 33.659 32.998 18.3 18.3 0 0 0 37.371 27.793 0.6 0.6 0 0 0 37.419 27.566 0.583 0.583 0 0 0 36.832 26.987M36.248 20.035H4.744C3.281 20.035 2.096 21.2 2.096 22.64 2.096 22.775 2.107 22.908 2.128 23.038L2.117 23.04A27 27 0 0 0 2.253 23.761C2.368 24.28 2.837 24.668 3.4 24.668H37.582C38.148 24.668 38.623 24.272 38.734 23.743V23.737C38.783 23.507 38.828 23.273 38.866 23.038H38.863C38.885 22.907 38.896 22.774 38.896 22.64 38.896 21.2 37.712 20.035 36.248 20.035M41.733 10.202L41.661 10.132A0.954 0.954 0 0 0 40.423 10.048L40.238 10.228 34.395 15.981 33.174 17.183 32.803 17.549C32.797 17.552 32.794 17.557 32.786 17.563A0.43 0.43 0 0 0 32.665 17.862C32.665 18.103 32.861 18.297 33.105 18.297H34.348A1.18 1.18 0 0 0 35.201 17.938L41.632 11.605 41.82 11.419A0.92 0.92 0 0 0 41.733 10.202M11.792 18.973C11.874 18.973 11.953 18.967 12.032 18.957 12.032 18.961 12.034 18.966 12.037 18.973H27.522L27.53 18.957A1.824 1.824 0 0 0 29.596 17.15C29.596 16.507 29.261 15.944 28.758 15.62A1 1 0 0 1 28.637 15.547L28.634 15.546A1.2 1.2 0 0 1 28.113 14.73V14.725C28.111 14.718 28.111 14.712 28.111 14.704A1.22 1.22 0 0 0 26.821 13.758L26.816 13.76 26.675 13.778A4.988 4.988 0 0 1 21.065 8.836L21.067 8.678C21.069 8.642 21.069 8.606 21.072 8.571A1.213 1.213 0 0 0 19.93 7.368L19.808 7.366H19.778C15.509 7.366 11.982 10.546 11.453 14.659L11.446 14.727C11.444 14.728 11.444 14.729 11.444 14.732 11.392 15.071 11.199 15.362 10.926 15.547L10.924 15.548C10.884 15.574 10.844 15.599 10.802 15.62A1.81 1.81 0 0 0 9.964 17.151C9.964 18.158 10.783 18.973 11.792 18.973" fill="#f9bc60" data-fill-palette-color="accent"></path></g></g></svg></g></svg></g><g></g></svg></g><defs></defs></svg><rect width="210.15208722846225" height="247.2" fill="none" stroke="none" visibility="hidden"></rect></g></svg></g></svg>